<svg width="207" height="206" viewBox="0 0 207 206" fill="none" xmlns="http://www.w3.org/2000/svg">
<mask id="mask0_2_79" style="mask-type:luminance" maskUnits="userSpaceOnUse" x="-8" y="-27" width="225" height="227">
<path d="M216.407 127.707L142.909 -26.692L-7.87803 45.0865L65.6196 199.486L216.407 127.707Z" fill="white"/>
</mask>
<g mask="url(#mask0_2_79)">
<path d="M158.216 132.58C158.187 136.765 161.57 140.168 165.756 140.197C167.787 140.198 169.663 139.427 171.033 138.123C172.479 136.747 173.369 134.838 173.397 132.683L173.636 94.9908C173.665 90.8055 170.306 87.4284 166.121 87.3991C161.935 87.3698 158.533 90.7529 158.504 94.9388L158.216 132.58ZM128.739 117.658C128.66 121.842 131.993 125.293 136.177 125.372C138.183 125.398 140.118 124.631 141.563 123.239C143.007 121.846 143.844 119.94 143.891 117.934L145.101 43.0128C145.179 38.8292 141.847 35.3781 137.663 35.299C133.503 35.2459 130.052 38.5784 129.973 42.7627L128.739 117.658ZM51.3398 90.4785C51.5176 86.2969 48.3105 82.7747 44.1302 82.5474C39.9487 82.3696 36.4264 85.5768 36.2233 89.7824L34.2262 133.45C34.1581 134.957 34.5416 136.449 35.3274 137.736C36.1133 139.023 37.2658 140.046 38.637 140.673C40.0082 141.301 41.5356 141.504 43.0232 141.258C44.5109 141.011 45.8909 140.326 46.9863 139.289C48.3561 137.986 49.2177 136.199 49.3429 134.146L51.3398 90.4785ZM83.321 41.237C83.4738 37.0792 80.2171 33.5558 76.0359 33.3777C71.8782 33.2256 68.3547 36.4822 68.2011 40.6891L65.5219 114.93C65.3936 119.112 68.626 122.61 72.8076 122.788C74.8087 122.862 76.7575 122.139 78.226 120.777C79.6946 119.416 80.5631 117.528 80.6409 115.527L83.321 41.237ZM114.306 11.2654C114.342 10.2612 114.179 9.25986 113.825 8.31949C113.471 7.3791 112.933 6.51926 112.244 5.78807C111.555 5.05755 110.726 4.47157 109.808 4.06379C108.89 3.65603 107.9 3.43507 106.896 3.413C105.891 3.39162 104.893 3.56971 103.958 3.93775C103.023 4.3058 102.17 4.85616 101.451 5.55613C100.73 6.2568 100.156 7.09313 99.7621 8.01765C99.3678 8.94218 99.1617 9.93534 99.1554 10.9397L96.2905 141.723C96.2718 143.713 97.0363 145.63 98.4191 147.061C99.8013 148.491 101.691 149.321 103.68 149.37C105.67 149.419 107.598 148.684 109.05 147.323C110.502 145.963 111.36 144.086 111.44 142.098L114.306 11.2654Z" fill="white"/>
</g>
</svg>
